<svg width="21" height="20" viewBox="0 0 21 20" fill="none" xmlns="http://www.w3.org/2000/svg">
  <path d="M1.88348 5.56581C2.51662 4.27641 3.41119 3.18661 4.53859 2.28043C6.0663 1.04692 7.81867 0.304416 9.78345 0.0768745C12.0914 -0.190586 14.2604 0.236553 16.266 1.41019C16.7643 1.7016 17.23 2.03293 17.6752 2.39221C17.7855 2.48003 17.7733 2.53193 17.6793 2.61975C16.7684 3.50596 15.8575 4.39218 14.9548 5.28638C14.8486 5.39017 14.7914 5.38218 14.677 5.29835C12.0301 3.30637 8.16996 3.84528 6.19701 6.47997C5.84981 6.94304 5.56796 7.44203 5.37189 7.98494C5.35555 8.03284 5.32287 8.07675 5.29836 8.12465C4.77142 7.73344 4.2404 7.34223 3.71755 6.94703C3.10483 6.48795 2.49212 6.02888 1.88348 5.56581Z" fill="#E94335"/>
  <path d="M5.29836 11.8691C5.474 12.2483 5.62105 12.6435 5.84163 12.9988C6.76888 14.4838 8.09235 15.4379 9.83655 15.7772C11.4092 16.0846 12.9206 15.877 14.3298 15.1066C14.3788 15.0826 14.4278 15.0587 14.4728 15.0347C14.4973 15.0587 14.5177 15.0866 14.5422 15.1066C15.5961 15.9049 16.654 16.7033 17.7079 17.5017C17.2014 17.9927 16.6255 18.3879 16.0127 18.7313C14.2359 19.7213 12.3119 20.1205 10.2859 19.9688C7.76148 19.7771 5.58429 18.8031 3.78699 17.0466C2.99862 16.2762 2.34914 15.406 1.87939 14.412C2.31647 14.0846 2.75354 13.7613 3.19061 13.4339C3.89319 12.911 4.59577 12.392 5.29836 11.8691Z" fill="#34A853"/>
  <path d="M17.712 17.5018C16.6581 16.7034 15.6002 15.905 14.5463 15.1066C14.5218 15.0867 14.4973 15.0587 14.4768 15.0348C14.8404 14.7593 15.2121 14.4919 15.5103 14.1406C16.0086 13.5577 16.3395 12.8991 16.5111 12.1606C16.5315 12.0687 16.5152 12.0368 16.4212 12.0408C16.3722 12.0448 16.3273 12.0408 16.2782 12.0408C14.6116 12.0408 12.941 12.0368 11.2744 12.0448C11.0906 12.0448 11.0497 11.9969 11.0538 11.8252C11.062 10.6676 11.062 9.5099 11.0538 8.35223C11.0538 8.20453 11.0946 8.16461 11.2458 8.16461C14.3012 8.1686 17.3566 8.1686 20.4161 8.16461C20.5468 8.16461 20.5999 8.19655 20.6326 8.33227C20.8818 9.43006 20.8654 10.5318 20.7143 11.6416C20.5918 12.5278 20.3712 13.3861 20.0321 14.2164C19.5297 15.4419 18.7904 16.5118 17.8182 17.4299C17.7814 17.4579 17.7447 17.4778 17.712 17.5018Z" fill="#4285F3"/>
  <path d="M5.29835 11.8691C4.59576 12.3921 3.89318 12.911 3.1906 13.434C2.75353 13.7573 2.31646 14.0847 1.87938 14.412C1.54035 13.7972 1.31977 13.1466 1.14004 12.4759C0.796917 11.1785 0.743815 9.86118 0.931715 8.53984C1.07877 7.50193 1.38513 6.50394 1.87938 5.56982C2.4921 6.0289 3.10073 6.49197 3.71345 6.95104C4.24039 7.34624 4.76732 7.73746 5.29426 8.12867C5.2044 8.55581 5.07777 8.97496 5.03692 9.41408C4.96339 10.2125 5.041 10.9909 5.27384 11.7574C5.29018 11.7893 5.29426 11.8292 5.29835 11.8691Z" fill="#FABB06"/>
</svg>
